<svg width="48" height="48" viewBox="0 0 48 48" fill="none" xmlns="http://www.w3.org/2000/svg">
<rect opacity="0.12" x="6" y="16" width="36" height="28" rx="4" fill="#22272F"/>
<path d="M29.2002 3.25C30.0278 3.25 30.6936 3.24903 31.2314 3.29297C31.7781 3.33763 32.2579 3.43286 32.7021 3.65918C33.4078 4.0187 33.9813 4.59224 34.3408 5.29785C34.5671 5.74205 34.6624 6.22195 34.707 6.76855C34.751 7.30638 34.75 7.97222 34.75 8.7998V15.25H35.5996C36.7072 15.25 37.5835 15.2491 38.2881 15.3066C39.0014 15.3649 39.6051 15.4868 40.1562 15.7676C41.05 16.223 41.777 16.95 42.2324 17.8438C42.5132 18.3949 42.6351 18.9986 42.6934 19.7119C42.7509 20.4165 42.75 21.2928 42.75 22.4004V37.5996C42.75 38.7072 42.7509 39.5835 42.6934 40.2881C42.6351 41.0014 42.5132 41.6051 42.2324 42.1562C41.777 43.05 41.05 43.777 40.1562 44.2324C39.6051 44.5132 39.0014 44.6351 38.2881 44.6934C37.5835 44.7509 36.7072 44.75 35.5996 44.75H12.4004C11.2928 44.75 10.4165 44.7509 9.71191 44.6934C8.99862 44.6351 8.39486 44.5132 7.84375 44.2324C6.94998 43.777 6.22298 43.05 5.76758 42.1562C5.48682 41.6051 5.36492 41.0014 5.30664 40.2881C5.24909 39.5835 5.25 38.7072 5.25 37.5996V22.4004C5.25 21.2928 5.24909 20.4165 5.30664 19.7119C5.36492 18.9986 5.48682 18.3949 5.76758 17.8438C6.22298 16.95 6.94998 16.223 7.84375 15.7676C8.39487 15.4868 8.99862 15.3649 9.71191 15.3066C10.4165 15.2491 11.2928 15.25 12.4004 15.25H13.25V8.7998C13.25 7.97222 13.249 7.30638 13.293 6.76855C13.3376 6.22195 13.4329 5.74205 13.6592 5.29785C14.0187 4.59224 14.5922 4.0187 15.2979 3.65918C15.7421 3.43286 16.2219 3.33763 16.7686 3.29297C17.3064 3.24903 17.9722 3.25 18.7998 3.25H29.2002ZM12.4004 16.75C11.268 16.75 10.4633 16.7503 9.83398 16.8018C9.21336 16.8525 8.82889 16.9494 8.52441 17.1045C7.91305 17.4161 7.41605 17.913 7.10449 18.5244C6.94936 18.8289 6.85247 19.2134 6.80176 19.834C6.75035 20.4633 6.75 21.268 6.75 22.4004V37.5996C6.75 38.732 6.75035 39.5367 6.80176 40.166C6.85247 40.7866 6.94936 41.1711 7.10449 41.4756C7.41605 42.087 7.91305 42.5839 8.52441 42.8955C8.82889 43.0506 9.21336 43.1475 9.83398 43.1982C10.4633 43.2497 11.268 43.25 12.4004 43.25H35.5996C36.732 43.25 37.5367 43.2497 38.166 43.1982C38.7866 43.1475 39.1711 43.0506 39.4756 42.8955C40.087 42.5839 40.5839 42.087 40.8955 41.4756C41.0506 41.1711 41.1475 40.7866 41.1982 40.166C41.2497 39.5367 41.25 38.732 41.25 37.5996V22.4004C41.25 21.268 41.2497 20.4633 41.1982 19.834C41.1475 19.2134 41.0506 18.8289 40.8955 18.5244C40.5839 17.913 40.087 17.4161 39.4756 17.1045C39.1711 16.9494 38.7866 16.8525 38.166 16.8018C37.5367 16.7503 36.732 16.75 35.5996 16.75H12.4004ZM24 27.25C24.4142 27.25 24.75 27.5858 24.75 28V32C24.75 32.4142 24.4142 32.75 24 32.75C23.5858 32.75 23.25 32.4142 23.25 32V28C23.25 27.5858 23.5858 27.25 24 27.25ZM18.7998 4.75C17.9475 4.75 17.3532 4.75029 16.8906 4.78809C16.4368 4.82517 16.176 4.89449 15.9785 4.99512C15.5552 5.21083 15.2108 5.55515 14.9951 5.97852C14.8945 6.17602 14.8252 6.4368 14.7881 6.89062C14.7503 7.35322 14.75 7.94746 14.75 8.7998V15.25H33.25V8.7998C33.25 7.94746 33.2497 7.35322 33.2119 6.89062C33.1748 6.4368 33.1055 6.17602 33.0049 5.97852C32.7892 5.55515 32.4448 5.21083 32.0215 4.99512C31.824 4.89449 31.5632 4.82517 31.1094 4.78809C30.6468 4.75029 30.0525 4.75 29.2002 4.75H18.7998Z" fill="#22272F"/>
</svg>
