<svg width="160" height="35" viewBox="0 0 160 35" fill="none" xmlns="http://www.w3.org/2000/svg">
<path d="M1.56699 12.7724C5.32855 12.6313 9.98348 12.1141 15.2497 10.8916C20.0927 9.76312 24.1834 8.30551 27.4277 6.89493C27.5688 6.84791 28.2741 6.70685 28.9323 7.08301C29.3555 7.3181 29.6846 7.69426 29.7787 8.16445L29.9197 9.62206C30.0138 10.0923 29.9197 10.6095 29.6376 10.9856C29.2615 11.5028 28.6502 11.7379 28.3681 11.832C18.9642 14.8412 16.7543 15.3114 16.7543 15.3114C16.7543 15.3114 11.159 16.5339 2.5544 17.7094C2.3193 17.7564 1.61401 17.8035 1.04978 17.5213C0.6266 17.2862 0.297463 16.9101 0.203424 16.4399L0.0623656 14.9823C-0.219751 13.9949 0.485541 13.0075 1.56699 12.7724Z" fill="#F15822"/>
<path d="M34.7157 26.6902L31.8946 14.5591C31.7535 14.0419 31.4714 13.6187 31.0482 13.3836C30.484 13.0545 29.7787 13.1015 29.5906 13.1485C27.7098 13.3836 22.5847 15.5465 15.955 17.0041C11.3941 18.0386 4.99943 18.4147 3.02461 19.073C2.64845 19.2141 2.13124 19.4492 1.8021 19.9193C1.51998 20.3425 1.42595 20.8597 1.567 21.3299L4.38817 33.461C4.52923 33.9782 4.81135 34.4014 5.23452 34.6364C5.8928 35.0596 6.55107 34.9186 6.69213 34.8715C10.4067 34.6835 13.7921 34.4954 19.9046 33.1788C25.9231 31.9093 29.4966 30.4517 33.2581 28.9001C34.2926 28.712 34.9508 27.6776 34.7157 26.6902ZM26.5344 21.2359C26.4873 21.424 26.4873 21.565 26.4403 21.7531C25.3589 24.2451 23.8072 26.408 21.3622 27.8186C19.9516 28.5709 18.4 28.9001 16.8483 29.0411C13.9331 29.0411 11.5822 27.7246 9.37224 26.0319C8.38483 25.1855 7.96166 24.4332 8.71397 23.2107C9.18416 22.4584 9.84243 22.4114 10.5477 22.8346C11.3 23.4458 11.9113 24.1041 12.7576 24.6213C16.7073 27.0663 20.9861 25.8438 22.9609 21.6591C23.1489 21.2829 23.29 20.9068 23.4311 20.5306C23.7602 19.6843 24.3715 19.2141 25.3118 19.4962C26.2522 19.6843 26.6754 20.2955 26.5344 21.2359Z" fill="#F15822"/>
<path d="M24.3243 1.06449C22.5375 -0.299077 20.3276 -0.393116 18.4939 1.01747C16.0489 2.89825 15.0615 5.48432 14.8264 8.02337C14.9204 9.66905 15.2495 10.0452 16.1899 9.81011C18.729 9.24588 21.174 8.39953 23.2899 6.80087C24.0892 6.18961 24.7945 5.48432 25.1706 4.54393C25.7819 3.22738 25.4528 1.91084 24.3243 1.06449ZM22.8667 4.49691C21.7382 6.09557 20.1396 7.13 18.4469 8.07039C17.7416 8.44655 16.9422 8.77568 16.1899 9.10482C16.0489 9.15184 15.9078 9.19886 15.6257 9.24588C15.6727 8.77568 15.7197 8.39953 15.7667 8.07039C16.2369 6.00153 17.4124 4.35585 19.1051 3.08633C19.9985 2.42805 21.0799 2.0519 22.2084 2.52209C23.3369 2.94527 23.525 3.55652 22.8667 4.49691Z" fill="#F15822"/>
<path d="M13.9329 8.91676C12.4283 6.18963 10.1244 4.40289 6.97407 3.88567C5.42242 3.65058 4.01184 4.07375 2.88337 5.20222C0.767492 7.41214 1.47278 9.99821 4.38799 10.9386C5.79858 11.3618 7.20916 11.4088 8.66677 11.4088C11.723 11.1267 12.3813 10.8446 13.0866 10.5154C14.027 10.1863 14.4031 9.81013 13.9329 8.91676ZM4.85819 8.96378C3.87078 8.44657 3.72972 7.92935 4.34097 7.03598C5.09328 5.95453 6.22175 5.81347 7.35022 5.95453C9.74821 6.28367 11.7701 7.3181 13.2277 9.29292C13.3217 9.38696 13.3687 9.52801 13.5098 9.76311C9.65417 10.6095 7.72638 10.4684 4.85819 8.96378Z" fill="#F15822"/>
<path d="M119.539 15.0294C119.586 17.0042 119.868 18.4148 120.62 19.7313C121.278 20.8598 122.172 21.7532 123.535 22.0823C124.899 22.3644 126.027 21.9883 126.968 21.0009C127.25 20.7187 127.485 20.3896 127.767 20.0605C128.002 19.7313 128.284 19.6373 128.567 19.7313C128.849 19.8254 128.99 20.1075 128.943 20.5307C128.802 22.1763 128.096 23.5869 126.686 24.5743C125.745 25.2326 124.664 25.5147 123.488 25.5618C120.385 25.7498 117.846 23.9161 116.624 21.283C115.448 18.7439 115.495 16.1579 116.812 13.7128C117.893 11.738 119.633 10.6566 121.843 10.3745C123.676 10.1394 125.369 10.4685 126.968 11.4559C127.814 11.9731 128.519 12.6784 128.802 13.7128C129.037 14.6062 128.802 15.3115 128.19 15.6877C127.532 16.1108 126.498 16.0638 125.839 15.5466C125.463 15.2175 125.134 14.8413 124.899 14.4181C124.476 13.8069 124.147 13.1016 123.629 12.5844C122.642 11.5029 121.184 11.597 120.291 12.7725C119.68 13.5718 119.539 14.5122 119.539 15.0294Z" fill="#F15822"/>
<path d="M74.447 19.2141C74.1179 20.2015 73.8358 21.1419 73.5537 22.0823C73.2715 22.9286 73.0364 23.822 72.7543 24.6684C72.6133 25.1856 72.4252 25.3266 71.861 25.3266C71.7199 25.3266 71.5788 25.3266 71.4378 25.3266C71.0146 25.3266 70.7795 25.1386 70.6385 24.7624C69.9332 23.0697 69.2279 21.377 68.5226 19.6843C68.2875 19.073 68.0054 18.4618 67.7703 17.8505C67.5822 17.3333 67.3001 16.8631 66.9239 16.487C66.7829 16.3459 66.6888 16.2049 66.5948 16.0168C66.4067 15.5466 66.5948 15.2645 67.065 15.2645C67.9113 15.2645 68.7107 15.2645 69.557 15.2645C70.0742 15.2645 70.6385 15.2645 71.1557 15.2645C71.3437 15.2645 71.5318 15.3115 71.6259 15.4996C71.7199 15.6876 71.6729 15.8757 71.5788 16.0638C71.5318 16.1108 71.5318 16.1578 71.4848 16.2049C70.9206 16.7221 70.8735 17.2863 71.1557 17.9446C71.5788 19.1671 71.955 20.3896 72.3782 21.6591C72.5663 21.377 72.5662 21.0949 72.6603 20.8128C73.1305 19.1671 73.6007 17.5214 74.1179 15.9227C74.259 15.4055 74.4 15.3115 74.9172 15.3115C75.2464 15.3115 75.5755 15.3115 75.9046 15.3115C76.2808 15.3115 76.4689 15.4996 76.5159 15.7817C76.892 17.0982 77.2682 18.3678 77.5973 19.6843C77.7854 20.2955 77.9735 20.9538 78.1616 21.6591C78.3967 21.0008 78.5847 20.3896 78.8198 19.8254C79.0549 19.1671 79.243 18.5558 79.4781 17.8976C79.7132 17.2863 79.5251 16.8161 79.0549 16.3929C78.9139 16.2989 78.7728 16.1578 78.6788 16.0168C78.5377 15.8757 78.5377 15.6876 78.6318 15.4996C78.7258 15.3115 78.8669 15.2645 79.0549 15.2645C79.9953 15.2645 80.9357 15.2645 81.8761 15.2645C82.2993 15.2645 82.4403 15.6406 82.2523 16.0168C82.1582 16.2049 81.9701 16.3459 81.8291 16.534C81.4059 16.9101 81.1238 17.3803 80.9357 17.9446C80.1364 20.2015 79.3371 22.4114 78.5377 24.6213C78.3496 25.1856 78.1616 25.3266 77.5503 25.3266C77.4093 25.3266 77.2682 25.3266 77.1271 25.3266C76.4218 25.3266 76.2808 25.2326 76.0457 24.5273C75.5285 22.8346 74.9642 21.0479 74.447 19.2141Z" fill="#F15822"/>
<path d="M151.982 16.6751C152.876 15.3585 154.098 15.0294 155.462 15.1704C157.53 15.4055 158.518 16.8161 158.847 18.6029C159.082 19.8254 159.082 21.0949 159.176 22.3174C159.223 23.0227 159.317 23.728 159.787 24.3392C159.834 24.4333 159.881 24.5273 159.928 24.6214C160.117 25.0916 159.928 25.3737 159.411 25.3737C158.095 25.3737 156.731 25.3737 155.415 25.3737C155.179 25.3737 154.944 25.3737 154.85 25.1386C154.756 24.9035 154.803 24.6684 154.944 24.4803C155.085 24.1982 155.321 24.0101 155.462 23.728C155.603 23.4459 155.603 23.1167 155.556 22.8346C155.462 21.424 155.415 20.0134 155.274 18.6029C155.226 18.1327 155.132 17.6625 154.944 17.2393C154.756 16.8161 154.427 16.534 153.91 16.534C153.393 16.534 153.017 16.7221 152.781 17.1923C152.546 17.6625 152.499 18.1327 152.499 18.6499C152.499 20.1075 152.499 21.5651 152.499 23.0227C152.499 23.4459 152.64 23.822 152.923 24.1041C153.064 24.2922 153.252 24.4333 153.346 24.6214C153.581 25.0445 153.393 25.3737 152.923 25.3737C152.452 25.3737 151.982 25.3737 151.512 25.3737C150.525 25.3737 149.49 25.3737 148.503 25.3737C148.268 25.3737 148.08 25.3737 147.938 25.1386C147.844 24.9035 147.891 24.6684 148.033 24.4803C148.033 24.4803 148.033 24.4333 148.08 24.4333C148.785 23.822 148.879 23.0227 148.832 22.1763C148.785 21.1889 148.785 20.2015 148.832 19.2141C148.832 18.6499 148.644 18.2737 148.221 17.9446C148.127 17.8505 148.033 17.8035 147.938 17.6625C147.609 17.3333 147.656 16.9572 148.08 16.7691C149.114 16.2519 150.195 15.7347 151.277 15.2175C151.7 15.0294 151.982 15.2175 151.982 15.7347C152.029 15.9698 151.982 16.2989 151.982 16.6751Z" fill="#F15822"/>
<path d="M134.444 16.581C134.444 18.6499 134.444 20.6717 134.444 22.7406C134.444 23.3518 134.585 23.822 135.008 24.2452C135.102 24.3392 135.196 24.4803 135.29 24.6213C135.525 25.0445 135.337 25.3737 134.82 25.4207C133.88 25.4207 132.939 25.4207 131.999 25.4207C131.482 25.4207 130.964 25.4207 130.4 25.4207C129.93 25.4207 129.742 25.1386 129.93 24.6684C130.024 24.4803 130.165 24.2922 130.306 24.1511C130.588 23.822 130.682 23.4459 130.682 23.0227C130.682 19.9194 130.682 16.8161 130.682 13.7128C130.682 13.2426 130.541 12.8665 130.259 12.4903C130.165 12.3963 130.071 12.3022 130.024 12.1612C129.742 11.785 129.836 11.4559 130.212 11.2678C131.294 10.7036 132.422 10.1864 133.55 9.62212C134.115 9.34 134.491 9.71616 134.444 10.2334C134.444 12.3022 134.444 14.4651 134.444 16.581Z" fill="#F15822"/>
<path d="M98.2389 17.0982C98.427 16.581 98.7091 16.1108 99.1793 15.7347C99.9316 15.1234 100.825 14.9823 101.765 15.2174C102.565 15.4055 103.082 16.2519 103.082 17.1923C103.082 17.6154 103.035 18.0386 102.8 18.4148C102.424 19.026 101.859 19.1671 101.201 19.1201C100.637 19.073 100.261 18.7439 100.073 18.1797C100.026 17.9916 99.9316 17.8035 99.8846 17.5684C99.7905 17.2863 99.6025 17.1452 99.3204 17.1452C99.0382 17.1452 98.8972 17.3333 98.7561 17.5684C98.6151 17.8976 98.568 18.2737 98.568 18.6499C98.568 20.1075 98.568 21.5651 98.568 23.0227C98.568 23.4929 98.8031 23.822 99.1323 24.1041C99.2733 24.2452 99.4614 24.3862 99.5554 24.5273C99.6495 24.7154 99.6965 24.9035 99.6025 25.0915C99.5084 25.2796 99.3203 25.3266 99.1323 25.3266C97.6276 25.3266 96.123 25.3266 94.6654 25.3266C94.1952 25.3266 94.0542 24.9975 94.2422 24.5743C94.3363 24.3392 94.5244 24.1982 94.6654 24.0101C94.9005 23.728 94.9946 23.3988 94.9946 23.0227C94.9946 21.7061 94.9946 20.3896 94.9946 19.073C94.9946 18.6028 94.8535 18.2267 94.4773 17.9446C94.3363 17.8505 94.1952 17.7095 94.1012 17.5684C93.9131 17.3333 93.9131 16.9572 94.1482 16.7691C94.2893 16.628 94.4303 16.581 94.6184 16.487C95.5118 16.0638 96.4051 15.6406 97.2985 15.2645C97.9098 14.9823 98.1449 15.1234 98.1449 15.7817C98.1919 16.2049 98.1919 16.628 98.2389 17.0982C98.1919 17.0982 98.1919 17.0982 98.2389 17.0982Z" fill="#F15822"/>
<path d="M56.9088 24.4803C56.7677 24.3393 56.6267 24.1982 56.4386 24.1042C56.0624 23.8221 55.7333 23.4929 55.4982 23.1168C54.6989 21.8943 53.8995 20.6247 53.0532 19.4022C52.9121 19.2142 52.9591 19.1671 53.1472 19.0731C53.5234 18.885 53.8995 18.6029 54.2287 18.3208C56.0154 16.6281 56.0154 13.7129 54.2287 12.0672C53.1942 11.0798 51.8777 10.7506 50.4671 10.6096C49.2446 10.4685 47.9751 10.5626 46.9406 10.5626C45.7181 10.5626 44.6837 10.5626 43.6493 10.5626C43.085 10.5626 42.897 10.8917 43.1791 11.4089C43.2731 11.55 43.3672 11.691 43.4612 11.7851C43.7433 12.1142 43.8844 12.5374 43.8844 13.0076C43.8844 16.346 43.8844 19.6373 43.8844 22.9757C43.8844 23.4459 43.7433 23.8221 43.4612 24.1982C43.3201 24.3863 43.1321 24.5274 43.085 24.7625C42.944 25.1386 43.1321 25.4207 43.5082 25.4207C45.0599 25.4207 46.6585 25.4207 48.2102 25.4207C48.5863 25.4207 48.7744 25.0916 48.5863 24.7154C48.4923 24.5274 48.3512 24.3393 48.1631 24.1982C47.9281 23.9161 47.693 23.634 47.693 23.2578C47.693 22.2234 47.693 21.189 47.693 20.1075C47.693 19.9194 47.787 19.8724 47.9281 19.8724C48.3982 19.8724 48.8684 19.8724 49.3386 19.8724C49.5267 19.8724 49.6208 19.9194 49.7148 20.1075C50.232 21.0949 50.7492 22.0353 51.2664 23.0227C51.5956 23.634 51.5486 23.8691 51.1254 24.3863C51.0784 24.4803 50.9843 24.5744 50.9373 24.6684C50.6552 25.0916 50.8433 25.4677 51.3605 25.4677C53.0532 25.4677 54.7459 25.4677 56.3916 25.4677C56.5796 25.4677 56.8147 25.4207 56.9088 25.2326C57.1439 24.9035 57.0498 24.6684 56.9088 24.4803ZM51.4075 17.0513C51.1254 17.9446 50.5141 18.3678 49.5737 18.3678C49.3857 18.3678 49.2446 18.3678 49.0565 18.3678C48.2572 18.3208 47.834 17.8976 47.787 17.0983C47.787 17.0513 47.787 17.0042 47.787 16.9572C47.787 16.2989 47.787 15.6407 47.787 15.0294C47.787 14.3711 47.787 13.6659 47.787 13.0076C47.787 12.3023 48.1161 11.9732 48.8214 11.9732C49.9029 11.9732 50.6082 12.5844 51.0784 13.4778C51.6896 14.6062 51.7836 15.7817 51.4075 17.0513Z" fill="#F15822"/>
<path d="M114.931 24.7154C114.837 24.4803 114.696 24.2922 114.555 24.1042C114.273 23.728 114.131 23.3519 114.131 22.8817C114.131 21.0009 114.131 19.1201 114.131 17.2863C114.131 14.8883 114.131 12.4904 114.131 10.1394C114.131 9.66918 113.943 9.48111 113.426 9.57515C113.003 9.66918 112.627 9.81024 112.251 9.90428C111.498 10.1394 110.793 10.3275 110.041 10.5626C109.759 10.6566 109.524 10.7506 109.477 11.0798C109.43 11.3619 109.618 11.55 109.806 11.738C109.947 11.8791 110.088 11.9731 110.229 12.1142C110.417 12.3023 110.558 12.4904 110.558 12.7725C110.558 13.7129 110.558 14.7003 110.558 15.6877C110.323 15.5936 110.135 15.4526 109.9 15.4056C108.066 14.7003 105.715 15.4056 104.492 17.0983C103.505 18.4618 103.27 19.9665 103.552 21.6121C103.928 23.8221 105.856 25.5148 108.113 25.6088C109.147 25.6558 110.088 25.4207 110.934 24.7154C110.981 25.2326 111.122 25.4207 111.451 25.4207C112.486 25.4207 113.52 25.4207 114.508 25.4207C114.837 25.3267 115.025 25.0916 114.931 24.7154ZM110.511 20.7658C110.511 21.4711 110.511 22.1764 110.511 22.9287C110.511 23.3048 110.417 23.634 110.229 23.9631C109.759 24.6684 108.912 24.7624 108.348 24.1042C107.878 23.5399 107.643 22.8346 107.455 22.1294C107.126 20.9068 106.937 19.6373 107.032 18.3678C107.079 17.8506 107.173 17.3804 107.408 16.9572C107.831 16.1579 108.724 15.9698 109.477 16.534C110.182 17.0512 110.511 17.8036 110.558 18.6499C110.558 19.3082 110.511 20.0605 110.511 20.7658Z" fill="#F15822"/>
<path d="M93.1608 24.3863C92.7847 24.1512 92.5496 23.822 92.5025 23.3988C92.3145 22.0823 92.1734 20.7658 91.9853 19.4022C91.7973 18.0386 91.233 16.9102 90.1046 16.0638C89.3522 15.4996 88.4589 15.2175 87.5185 15.1704C86.296 15.0764 85.1205 15.1704 84.039 15.6877C83.5688 15.9227 83.1927 16.2049 82.9106 16.6751C82.4404 17.5684 82.7695 18.6029 83.6159 18.838C84.4152 19.0731 85.1205 18.7909 85.4966 17.9446C85.6847 17.5214 85.8258 17.0982 86.0139 16.6751C86.2019 16.2989 86.4841 16.0638 86.9542 16.0638C87.4244 16.0638 87.7066 16.3459 87.8946 16.7221C88.2708 17.6625 88.2708 18.6029 88.3648 19.6373C88.2238 19.5903 88.1297 19.5432 88.0357 19.4962C86.6251 18.932 85.2145 18.979 83.898 19.7313C82.0642 20.8128 81.9232 23.4459 83.5688 24.6684C84.2271 25.1386 85.0264 25.3737 85.8258 25.4207C87.0483 25.5147 88.1768 25.4207 89.0701 24.3863C89.3052 24.9505 89.4933 25.1386 89.9165 25.2326C90.9509 25.4677 91.9853 25.4207 93.0198 25.1386C93.2078 25.0915 93.3959 24.9975 93.4429 24.7154C93.537 24.5743 93.3489 24.4803 93.1608 24.3863ZM88.5999 23.4929C88.5999 23.5399 88.5529 23.5869 88.5529 23.6339C88.4118 24.0571 88.1297 24.4333 87.6595 24.4803C87.1893 24.5273 86.9072 24.1982 86.6721 23.822C86.39 23.3518 86.249 22.5995 86.249 21.8472C86.249 21.5651 86.296 21.283 86.39 21.0479C86.7192 20.2485 87.6595 20.1075 88.1767 20.8128C88.4118 21.1419 88.5529 21.471 88.5999 21.8942C88.5999 22.3644 88.741 22.9287 88.5999 23.4929Z" fill="#F15822"/>
<path d="M146.998 24.3863C146.622 24.1512 146.387 23.822 146.34 23.3988C146.152 22.0823 146.011 20.7658 145.823 19.4022C145.635 17.8505 144.929 16.534 143.472 15.7817C141.638 14.8413 139.71 14.8883 137.829 15.6876C137.359 15.8757 136.983 16.2049 136.748 16.6751C136.278 17.5684 136.56 18.5558 137.406 18.838C138.206 19.1201 138.864 18.838 139.24 18.0856C139.428 17.6625 139.569 17.2393 139.757 16.8161C139.945 16.3929 140.227 16.1108 140.745 16.1108C141.262 16.1108 141.544 16.44 141.685 16.8631C142.014 17.7565 142.061 18.6969 142.155 19.6373C142.014 19.6373 141.92 19.5432 141.826 19.5432C140.415 19.026 139.052 19.026 137.735 19.7783C135.902 20.8598 135.761 23.5869 137.453 24.7624C138.394 25.4207 139.475 25.5617 140.604 25.5147C141.497 25.4677 142.296 25.1856 142.907 24.4333C143.049 24.9035 143.284 25.2326 143.707 25.3266C144.741 25.5617 145.823 25.5147 146.857 25.2326C147.045 25.1856 147.233 25.0445 147.28 24.8094C147.327 24.5743 147.139 24.4803 146.998 24.3863ZM142.437 23.4929C142.437 23.5399 142.39 23.6339 142.39 23.681C142.249 24.1041 141.967 24.4333 141.497 24.4803C141.027 24.5273 140.745 24.2452 140.509 23.869C140.18 23.2578 140.086 22.5525 140.039 21.8942C140.039 21.6121 140.039 21.33 140.18 21.0949C140.321 20.7187 140.557 20.4366 140.98 20.3896C141.403 20.3426 141.779 20.5307 142.014 20.8598C142.202 21.1419 142.343 21.5181 142.39 21.8472C142.437 22.4114 142.578 22.9287 142.437 23.4929Z" fill="#F15822"/>
<path d="M66.3126 21.9412C66.0775 21.8472 65.8894 21.9412 65.7013 22.1293C64.6669 23.2578 62.7861 23.2578 61.7047 22.1763C61.1875 21.6591 61.1875 21.6591 61.7987 21.33C63.0683 20.6247 64.3378 19.9194 65.6073 19.1671C66.1245 18.8849 66.2656 18.3677 66.2186 17.8035C66.1715 17.1452 65.8424 16.628 65.3722 16.1578C64.4788 15.3585 63.3974 15.1234 62.363 15.1234C61.1875 15.1234 60.153 15.4055 59.3067 16.0168C57.4259 17.3333 56.8147 19.1671 57.1438 21.33C57.755 25.0915 61.4226 26.22 64.0557 25.1856C65.2782 24.7154 66.1715 23.822 66.4537 22.4584C66.5477 22.2703 66.5477 22.0352 66.3126 21.9412ZM60.7173 20.2955C60.5292 19.6843 60.4822 19.073 60.4822 18.5088C60.4822 17.8975 60.5762 17.3333 60.8113 16.8631C61.0464 16.4399 61.3755 16.1578 61.8928 16.1578C62.41 16.1578 62.6921 16.4399 62.9272 16.8631C63.1623 17.3333 63.3033 17.8505 63.2563 18.4147C63.2563 18.8379 63.0212 19.1671 62.6451 19.4022C62.0808 19.7313 61.5166 20.0604 60.9524 20.4366C60.8113 20.4836 60.7643 20.4836 60.7173 20.2955Z" fill="#F15822"/>
</svg>
