<svg width="48" height="48" viewBox="0 0 48 48" fill="none" xmlns="http://www.w3.org/2000/svg">
<path opacity="0.12" d="M34.4004 4C37.7603 4 39.4402 4.00042 40.7236 4.6543C41.8526 5.22954 42.7705 6.14739 43.3457 7.27637C43.9996 8.55977 44 10.2397 44 13.5996V32H35.2002C34.0801 32 33.5196 31.9998 33.0918 32.2178C32.7155 32.4095 32.4095 32.7155 32.2178 33.0918C31.9998 33.5196 32 34.0801 32 35.2002V44H13.5996C10.2397 44 8.55977 43.9996 7.27637 43.3457C6.14739 42.7705 5.22954 41.8526 4.6543 40.7236C4.00042 39.4402 4 37.7603 4 34.4004V13.5996C4 10.2397 4.00042 8.55977 4.6543 7.27637C5.22954 6.14739 6.14739 5.22954 7.27637 4.6543C8.55977 4.00042 10.2397 4 13.5996 4H34.4004Z" fill="#22272F"/>
<path d="M34.4004 3.25C36.068 3.25 37.3643 3.24917 38.4023 3.33398C39.449 3.41953 40.2995 3.59562 41.0645 3.98535C42.3345 4.6325 43.3675 5.66545 44.0146 6.93555C44.4044 7.70049 44.5805 8.55103 44.666 9.59766C44.7508 10.6357 44.75 11.932 44.75 13.5996V32.0234C44.75 33.4553 44.7548 34.2939 44.5635 35.0908C44.3981 35.7794 44.1249 36.4382 43.7549 37.042C43.3267 37.7405 42.7308 38.3297 41.7188 39.3418L39.3418 41.7188C38.3297 42.7308 37.7405 43.3267 37.042 43.7549C36.4382 44.1249 35.7794 44.3981 35.0908 44.5635C34.2939 44.7548 33.4553 44.75 32.0234 44.75H13.5996C11.932 44.75 10.6357 44.7508 9.59766 44.666C8.55103 44.5805 7.70049 44.4044 6.93555 44.0146C5.66545 43.3675 4.6325 42.3345 3.98535 41.0645C3.59562 40.2995 3.41953 39.449 3.33398 38.4023C3.24917 37.3643 3.25 36.068 3.25 34.4004V13.5996C3.25 11.932 3.24917 10.6357 3.33398 9.59766C3.41953 8.55103 3.59562 7.70049 3.98535 6.93555C4.6325 5.66545 5.66545 4.6325 6.93555 3.98535C7.70049 3.59562 8.55103 3.41953 9.59766 3.33398C10.6357 3.24917 11.932 3.25 13.5996 3.25H34.4004ZM13.5996 4.75C11.9075 4.75 10.6835 4.75047 9.7207 4.8291C8.76657 4.90706 8.1346 5.05814 7.61621 5.32227C6.62859 5.82556 5.82556 6.62859 5.32227 7.61621C5.05814 8.1346 4.90706 8.76657 4.8291 9.7207C4.75047 10.6835 4.75 11.9075 4.75 13.5996V34.4004C4.75 36.0925 4.75047 37.3165 4.8291 38.2793C4.90706 39.2334 5.05814 39.8654 5.32227 40.3838C5.82556 41.3714 6.62859 42.1744 7.61621 42.6777C8.13459 42.9419 8.76657 43.0929 9.7207 43.1709C10.6835 43.2495 11.9075 43.25 13.5996 43.25H31.2959C31.268 43.1715 31.25 43.088 31.25 43V35.2002C31.25 34.6525 31.249 34.1963 31.2793 33.8252C31.3103 33.4455 31.3781 33.0891 31.5498 32.752C31.8135 32.2345 32.2345 31.8135 32.752 31.5498C33.0891 31.3781 33.4455 31.3103 33.8252 31.2793C34.1963 31.249 34.6525 31.25 35.2002 31.25H43C43.0879 31.25 43.1716 31.2671 43.25 31.2949V13.5996C43.25 11.9075 43.2495 10.6835 43.1709 9.7207C43.0929 8.76657 42.9419 8.13459 42.6777 7.61621C42.1744 6.62859 41.3714 5.82556 40.3838 5.32227C39.8654 5.05814 39.2334 4.90706 38.2793 4.8291C37.3165 4.75047 36.0925 4.75 34.4004 4.75H13.5996ZM43.2471 32.7041C43.1693 32.7314 43.0871 32.75 43 32.75H35.2002C34.6278 32.75 34.2431 32.7502 33.9473 32.7744C33.6605 32.7979 33.5232 32.8397 33.4326 32.8857C33.1974 33.0056 33.0066 33.1974 32.8867 33.4326C32.8406 33.5232 32.7979 33.6602 32.7744 33.9473C32.7502 34.2431 32.75 34.6278 32.75 35.2002V43C32.75 43.0871 32.7314 43.1693 32.7041 43.2471C33.7346 43.2426 34.2531 43.2214 34.7402 43.1045C35.2759 42.9759 35.7881 42.7644 36.2578 42.4766C36.77 42.1627 37.2185 41.721 38.2812 40.6582L40.6582 38.2812C41.721 37.2185 42.1627 36.77 42.4766 36.2578C42.7644 35.7881 42.9759 35.2759 43.1045 34.7402C43.2214 34.2531 43.2426 33.7346 43.2471 32.7041ZM18 29.25C18.4142 29.25 18.75 29.5858 18.75 30C18.75 30.4142 18.4142 30.75 18 30.75H14C13.5858 30.75 13.25 30.4142 13.25 30C13.25 29.5858 13.5858 29.25 14 29.25H18ZM26 21.25C26.4142 21.25 26.75 21.5858 26.75 22C26.75 22.4142 26.4142 22.75 26 22.75H14C13.5858 22.75 13.25 22.4142 13.25 22C13.25 21.5858 13.5858 21.25 14 21.25H26ZM30 13.25C30.4142 13.25 30.75 13.5858 30.75 14C30.75 14.4142 30.4142 14.75 30 14.75H14C13.5858 14.75 13.25 14.4142 13.25 14C13.25 13.5858 13.5858 13.25 14 13.25H30Z" fill="#22272F"/>
</svg>
